<?xml version="1.0" standalone="no"?><!DOCTYPE svg PUBLIC "-//W3C//DTD SVG 1.1//EN" "http://www.w3.org/Graphics/SVG/1.1/DTD/svg11.dtd"><svg t="1484715215685" class="icon" style="" viewBox="0 0 1182 1024" version="1.1" xmlns="http://www.w3.org/2000/svg" p-id="2137" xmlns:xlink="http://www.w3.org/1999/xlink" width="230.859375" height="200"><defs><style type="text/css"></style></defs><path d="M590.588992 1023.843796C494.349234 866.353398 0 892.601798 0 892.601798 0 892.601798 0 92.025609 0 92.025609 0 92.025609 52.496799 92.025609 52.496799 92.025609 52.496799 92.025609 52.496799 840.104998 52.496799 840.104998 515.124843 840.104998 590.588992 958.222797 590.588992 958.222797 725.11204 819.32939 1128.681184 840.104998 1128.681184 840.104998 1128.681184 840.104998 1128.681184 92.025609 1128.681184 92.025609 1128.681184 92.025609 1181.177983 92.025609 1181.177983 92.025609 1181.177983 92.025609 1181.177983 892.601798 1181.177983 892.601798 672.61524 863.072348 590.588992 1023.843796 590.588992 1023.843796ZM590.588992 892.601798C475.345393 776.623244 104.993599 786.3614 104.993599 786.3614 104.993599 786.3614 104.993599 0.15621 104.993599 0.15621 104.993599 0.15621 475.345393-8.715749 590.588992 107.262805 705.83259-8.715749 1076.184385 0.15621 1076.184385 0.15621 1076.184385 0.15621 1076.184385 786.3614 1076.184385 786.3614 1076.184385 786.3614 705.83259 776.623244 590.588992 892.601798ZM157.149169 732.289697C157.149169 732.289697 440.828748 724.822027 564.340592 806.782655 564.340592 806.782655 564.340592 149.24712 564.340592 149.24712 440.828748 64.21543 157.149169 50.736876 157.149169 50.736876 157.149169 50.736876 157.149169 732.289697 157.149169 732.289697ZM1024.028815 50.736876C1024.028815 50.736876 740.349236 64.21543 616.837391 149.24712 616.837391 149.24712 616.837391 806.782655 616.837391 806.782655 740.349236 724.822027 1024.028815 732.289697 1024.028815 732.289697 1024.028815 732.289697 1024.028815 50.736876 1024.028815 50.736876Z" p-id="2138"></path></svg>