<svg viewBox="66 100 888 1341" height="1341" width="888" xmlns:svgjs="http://svgjs.com/svgjs" xmlns:xlink="http://www.w3.org/1999/xlink" version="1.1" xmlns="http://www.w3.org/2000/svg" id="drawing"><defs id="SvgjsDefs1314"><marker markerUnits="userSpaceOnUse" orient="auto" viewBox="-1 -1.3763819204711736 16.23606797749979 10.550836550532098" refY="3.8990363547948754" refX="-1" markerHeight="10.550836550532098" markerWidth="16.23606797749979" id="SvgjsMarker1344"><path transform="matrix(1,0,0,1,0,0)" fill="#323232" stroke-width="2" stroke="#323232" d="M12 3.8990363547948754L0 7.798072709589751V0Z " id="SvgjsPath1345"></path></marker><marker markerUnits="userSpaceOnUse" orient="auto" viewBox="-1 -1.3763819204711736 16.23606797749979 10.550836550532098" refY="3.8990363547948754" refX="-1" markerHeight="10.550836550532098" markerWidth="16.23606797749979" id="SvgjsMarker1363"><path transform="matrix(1,0,0,1,0,0)" fill="#323232" stroke-width="2" stroke="#323232" d="M12 3.8990363547948754L0 7.798072709589751V0Z " id="SvgjsPath1364"></path></marker><marker markerUnits="userSpaceOnUse" orient="auto" viewBox="-1 -1.3763819204711736 16.23606797749979 10.550836550532098" refY="3.8990363547948754" refX="-1" markerHeight="10.550836550532098" markerWidth="16.23606797749979" id="SvgjsMarker1370"><path transform="matrix(1,0,0,1,0,0)" fill="#323232" stroke-width="2" stroke="#323232" d="M12 3.8990363547948754L0 7.798072709589751V0Z " id="SvgjsPath1371"></path></marker><marker markerUnits="userSpaceOnUse" orient="auto" viewBox="-1 -1.3763819204711736 16.23606797749979 10.550836550532098" refY="3.8990363547948754" refX="-1" markerHeight="10.550836550532098" markerWidth="16.23606797749979" id="SvgjsMarker1377"><path transform="matrix(1,0,0,1,0,0)" fill="#323232" stroke-width="2" stroke="#323232" d="M12 3.8990363547948754L0 7.798072709589751V0Z " id="SvgjsPath1378"></path></marker><marker markerUnits="userSpaceOnUse" orient="auto" viewBox="-1 -1.3763819204711736 16.23606797749979 10.550836550532098" refY="3.8990363547948754" refX="-1" markerHeight="10.550836550532098" markerWidth="16.23606797749979" id="SvgjsMarker1384"><path transform="matrix(1,0,0,1,0,0)" fill="#323232" stroke-width="2" stroke="#323232" d="M12 3.8990363547948754L0 7.798072709589751V0Z " id="SvgjsPath1385"></path></marker><marker markerUnits="userSpaceOnUse" orient="auto" viewBox="-1 -1.3763819204711736 16.23606797749979 10.550836550532098" refY="3.8990363547948754" refX="-1" markerHeight="10.550836550532098" markerWidth="16.23606797749979" id="SvgjsMarker1391"><path transform="matrix(1,0,0,1,0,0)" fill="#323232" stroke-width="2" stroke="#323232" d="M12 3.8990363547948754L0 7.798072709589751V0Z " id="SvgjsPath1392"></path></marker><marker markerUnits="userSpaceOnUse" orient="auto" viewBox="-1 -1.3763819204711736 16.23606797749979 10.550836550532098" refY="3.8990363547948754" refX="-1" markerHeight="10.550836550532098" markerWidth="16.23606797749979" id="SvgjsMarker1398"><path transform="matrix(1,0,0,1,0,0)" fill="#323232" stroke-width="2" stroke="#323232" d="M12 3.8990363547948754L0 7.798072709589751V0Z " id="SvgjsPath1399"></path></marker><marker markerUnits="userSpaceOnUse" orient="auto" viewBox="-1 -1.3763819204711736 16.23606797749979 10.550836550532098" refY="3.8990363547948754" refX="-1" markerHeight="10.550836550532098" markerWidth="16.23606797749979" id="SvgjsMarker1405"><path transform="matrix(1,0,0,1,0,0)" fill="#323232" stroke-width="2" stroke="#323232" d="M12 3.8990363547948754L0 7.798072709589751V0Z " id="SvgjsPath1406"></path></marker></defs><g id="SvgjsG1315"><path fill="#e5e5e5" fill-opacity="1" d="M66 100H954V1441H66V100Z " id="SvgjsPath1316"></path><g id="SvgjsG1317"><g opacity="1" transform="translate(287 187.5)" id="SvgjsG1318"><path opacity="1" fill="#66ff66" stroke-width="2" stroke="#323232" stroke-dasharray="none" d="M0 0L100 0L100 70L0 70Z " id="SvgjsPath1319"></path><g fill="#ffffff" transform="matrix(1 0 0 1 10 26.875)" id="SvgjsG1320"><text y="12" x="40" text-decoration="blink" text-anchor="middle" font-style="normal" font-weight="normal" font-size="13" fill="#323232" font-family="Arial,SimSun" id="SvgjsText1321">踩点</text></g></g><g opacity="1" transform="translate(287 332.5)" id="SvgjsG1322"><path opacity="1" fill="#33ff33" stroke-width="2" stroke="#323232" stroke-dasharray="none" d="M0 0L100 0L100 70L0 70Z " id="SvgjsPath1323"></path><g fill="#ffffff" transform="matrix(1 0 0 1 10 26.875)" id="SvgjsG1324"><text y="12" x="40" text-decoration="blink" text-anchor="middle" font-style="normal" font-weight="normal" font-size="13" fill="#323232" font-family="Arial,SimSun" id="SvgjsText1325">扫描</text></g></g><g opacity="1" transform="translate(287 486.5)" id="SvgjsG1326"><path opacity="1" fill="#33ff33" stroke-width="2" stroke="#323232" stroke-dasharray="none" d="M0 0L100 0L100 70L0 70Z " id="SvgjsPath1327"></path><g fill="#ffffff" transform="matrix(1 0 0 1 10 26.875)" id="SvgjsG1328"><text y="12" x="40" text-decoration="blink" text-anchor="middle" font-style="normal" font-weight="normal" font-size="13" fill="#323232" font-family="Arial,SimSun" id="SvgjsText1329">查点</text></g></g><g opacity="1" transform="translate(287 631.5)" id="SvgjsG1330"><path opacity="1" fill="#00ff00" stroke-width="2" stroke="#323232" stroke-dasharray="none" d="M0 0L100 0L100 70L0 70Z " id="SvgjsPath1331"></path><g fill="#ffffff" transform="matrix(1 0 0 1 10 26.875)" id="SvgjsG1332"><text y="12" x="40" text-decoration="blink" text-anchor="middle" font-style="normal" font-weight="normal" font-size="13" fill="#323232" font-family="Arial,SimSun" id="SvgjsText1333">访问</text></g></g><g opacity="1" transform="translate(287 1072.75)" id="SvgjsG1334"><path opacity="1" fill="#00ff00" stroke-width="2" stroke="#323232" stroke-dasharray="none" d="M0 0L100 0L100 70L0 70Z " id="SvgjsPath1335"></path><g fill="#ffffff" transform="matrix(1 0 0 1 10 26.875)" id="SvgjsG1336"><text y="12" x="40" text-decoration="blink" text-anchor="middle" font-style="normal" font-weight="normal" font-size="13" fill="#323232" font-family="Arial,SimSun" id="SvgjsText1337">掩灭踪迹</text></g></g><g opacity="1" transform="translate(287 946.25)" id="SvgjsG1338"><path opacity="1" fill="#00ff00" stroke-width="2" stroke="#323232" stroke-dasharray="none" d="M0 0L100 0L100 70L0 70Z " id="SvgjsPath1339"></path><g fill="#ffffff" transform="matrix(1 0 0 1 10 26.875)" id="SvgjsG1340"><text y="12" x="40" text-decoration="blink" text-anchor="middle" font-style="normal" font-weight="normal" font-size="13" fill="#323232" font-family="Arial,SimSun" id="SvgjsText1341">窃取信息</text></g></g><g id="SvgjsG1342"><path marker-end="url(#SvgjsMarker1344)" fill="none" stroke-width="2" stroke="#323232" stroke-dasharray="none" d="M337 257.5L337 295L337 295L337 317.2639320225002 " id="SvgjsPath1343"></path><g transform="matrix(1 0 0 1 337 279.25696601125014)" id="SvgjsG1346"><path transform="translate(0 0)" fill="#ffffff" d="M0 0H0V0.01666259765625H0V0Z " id="SvgjsPath1347"></path><text y="0" x="0" text-decoration="blink" text-anchor="middle" font-style="normal" font-weight="normal" font-size="13" fill="#000000" font-family="Microsoft Yahei,SimSun" id="SvgjsText1348"></text></g></g><g opacity="1" transform="translate(287 1187.5)" id="SvgjsG1349"><path opacity="1" fill="#33ff33" stroke-width="2" stroke="#323232" stroke-dasharray="none" d="M0 0L100 0L100 70L0 70Z " id="SvgjsPath1350"></path><g fill="#ffffff" transform="matrix(1 0 0 1 10 26.875)" id="SvgjsG1351"><text y="12" x="40" text-decoration="blink" text-anchor="middle" font-style="normal" font-weight="normal" font-size="13" fill="#323232" font-family="Arial,SimSun" id="SvgjsText1352">创建后门</text></g></g><g opacity="1" transform="translate(287 806.5)" id="SvgjsG1353"><path opacity="1" fill="#33ff33" stroke-width="2" stroke="#323232" stroke-dasharray="none" d="M0 0L100 0L100 70L0 70Z " id="SvgjsPath1354"></path><g fill="#ffffff" transform="matrix(1 0 0 1 10 26.875)" id="SvgjsG1355"><text y="12" x="40" text-decoration="blink" text-anchor="middle" font-style="normal" font-weight="normal" font-size="13" fill="#323232" font-family="Arial,SimSun" id="SvgjsText1356">提升提权</text></g></g><g opacity="1" transform="translate(287 1330.25)" id="SvgjsG1357"><path opacity="1" fill="#33ff33" stroke-width="2" stroke="#323232" stroke-dasharray="none" d="M0 0L100 0L100 70L0 70Z " id="SvgjsPath1358"></path><g fill="#ffffff" transform="matrix(1 0 0 1 10 26.875)" id="SvgjsG1359"><text y="12" x="40" text-decoration="blink" text-anchor="middle" font-style="normal" font-weight="normal" font-size="13" fill="#323232" font-family="Arial,SimSun" id="SvgjsText1360">拒绝服务</text></g></g><g id="SvgjsG1361"><path marker-end="url(#SvgjsMarker1363)" fill="none" stroke-width="2" stroke="#323232" stroke-dasharray="none" d="M337 402.5L337 444.5L337 444.5L337 471.2639320225002 " id="SvgjsPath1362"></path><g transform="matrix(1 0 0 1 337 428.75696601125014)" id="SvgjsG1365"><path transform="translate(0 0)" fill="#ffffff" d="M0 0H0V0.01666259765625H0V0Z " id="SvgjsPath1366"></path><text y="0" x="0" text-decoration="blink" text-anchor="middle" font-style="normal" font-weight="normal" font-size="13" fill="#000000" font-family="Microsoft Yahei,SimSun" id="SvgjsText1367"></text></g></g><g id="SvgjsG1368"><path marker-end="url(#SvgjsMarker1370)" fill="none" stroke-width="2" stroke="#323232" stroke-dasharray="none" d="M337 556.5L337 594L337 594L337 616.2639320225002 " id="SvgjsPath1369"></path><g transform="matrix(1 0 0 1 337 578.2569660112501)" id="SvgjsG1372"><path transform="translate(0 0)" fill="#ffffff" d="M0 0H0V0.01666259765625H0V0Z " id="SvgjsPath1373"></path><text y="0" x="0" text-decoration="blink" text-anchor="middle" font-style="normal" font-weight="normal" font-size="13" fill="#000000" font-family="Microsoft Yahei,SimSun" id="SvgjsText1374"></text></g></g><g id="SvgjsG1375"><path marker-end="url(#SvgjsMarker1377)" fill="none" stroke-width="2" stroke="#323232" stroke-dasharray="none" d="M337 701.5L337 754L337 754L337 791.2639320225002 " id="SvgjsPath1376"></path><g transform="matrix(1 0 0 1 337 738.2569660112501)" id="SvgjsG1379"><path transform="translate(0 0)" fill="#ffffff" d="M0 0H0V0.01666259765625H0V0Z " id="SvgjsPath1380"></path><text y="0" x="0" text-decoration="blink" text-anchor="middle" font-style="normal" font-weight="normal" font-size="13" fill="#000000" font-family="Microsoft Yahei,SimSun" id="SvgjsText1381"></text></g></g><g id="SvgjsG1382"><path marker-end="url(#SvgjsMarker1384)" fill="none" stroke-width="2" stroke="#323232" stroke-dasharray="none" d="M337 876.5L337 911.375L337 911.375L337 931.0139320225002 " id="SvgjsPath1383"></path><g transform="matrix(1 0 0 1 337 895.6319660112501)" id="SvgjsG1386"><path transform="translate(0 0)" fill="#ffffff" d="M0 0H0V0.01666259765625H0V0Z " id="SvgjsPath1387"></path><text y="0" x="0" text-decoration="blink" text-anchor="middle" font-style="normal" font-weight="normal" font-size="13" fill="#000000" font-family="Microsoft Yahei,SimSun" id="SvgjsText1388"></text></g></g><g id="SvgjsG1389"><path marker-end="url(#SvgjsMarker1391)" fill="none" stroke-width="2" stroke="#323232" stroke-dasharray="none" d="M337 1016.25L337 1044.5L337 1044.5L337 1057.5139320225003 " id="SvgjsPath1390"></path><g transform="matrix(1 0 0 1 337 1028.7569660112501)" id="SvgjsG1393"><path transform="translate(0 0)" fill="#ffffff" d="M0 0H0V0.01666259765625H0V0Z " id="SvgjsPath1394"></path><text y="0" x="0" text-decoration="blink" text-anchor="middle" font-style="normal" font-weight="normal" font-size="13" fill="#000000" font-family="Microsoft Yahei,SimSun" id="SvgjsText1395"></text></g></g><g id="SvgjsG1396"><path marker-end="url(#SvgjsMarker1398)" fill="none" stroke-width="2" stroke="#323232" stroke-dasharray="none" d="M337 1142.75L337 1165.125L337 1165.125L337 1172.2639320225003 " id="SvgjsPath1397"></path><g transform="matrix(1 0 0 1 337 1149.3819660112501)" id="SvgjsG1400"><path transform="translate(0 0)" fill="#ffffff" d="M0 0H0V0.01666259765625H0V0Z " id="SvgjsPath1401"></path><text y="0" x="0" text-decoration="blink" text-anchor="middle" font-style="normal" font-weight="normal" font-size="13" fill="#000000" font-family="Microsoft Yahei,SimSun" id="SvgjsText1402"></text></g></g><g id="SvgjsG1403"><path marker-end="url(#SvgjsMarker1405)" fill="none" stroke-width="2" stroke="#323232" stroke-dasharray="none" d="M337 1257.5L337 1293.875L337 1293.875L337 1315.0139320225003 " id="SvgjsPath1404"></path><g transform="matrix(1 0 0 1 337 1278.1319660112501)" id="SvgjsG1407"><path transform="translate(0 0)" fill="#ffffff" d="M0 0H0V0.01666259765625H0V0Z " id="SvgjsPath1408"></path><text y="0" x="0" text-decoration="blink" text-anchor="middle" font-style="normal" font-weight="normal" font-size="13" fill="#000000" font-family="Microsoft Yahei,SimSun" id="SvgjsText1409"></text></g></g><g opacity="1" transform="translate(113 114)" id="SvgjsG1410"><path opacity="1" fill="none" stroke="#323232" stroke-width="0" stroke-dasharray="none" d="M0 0L104 0L104 45L0 45Z " id="SvgjsPath1411"></path><g fill="#ffffff" transform="matrix(1 0 0 1 0 10)" id="SvgjsG1412"><text y="22" x="52" text-decoration="blink" text-anchor="middle" font-style="normal" font-weight="bold" font-size="20" fill="#000000" font-family="微软雅黑,黑体,Arial,SimSun" id="SvgjsText1413">目标</text></g></g><g opacity="1" transform="translate(513.5 122.5)" id="SvgjsG1414"><path opacity="1" fill="none" stroke="#323232" stroke-width="0" stroke-dasharray="none" d="M0 0L87 0L87 31L0 31Z " id="SvgjsPath1415"></path><g fill="#ffffff" transform="matrix(1 0 0 1 0 3)" id="SvgjsG1416"><text y="22" x="43.5" text-decoration="blink" text-anchor="middle" font-style="normal" font-weight="bold" font-size="20" fill="#000000" font-family="微软雅黑,黑体,Arial,SimSun" id="SvgjsText1417">技术</text></g></g><g opacity="1" transform="translate(709 118)" id="SvgjsG1418"><path opacity="1" fill="none" stroke="#323232" stroke-width="0" stroke-dasharray="none" d="M0 0L87 0L87 31L0 31Z " id="SvgjsPath1419"></path><g fill="#ffffff" transform="matrix(1 0 0 1 0 3)" id="SvgjsG1420"><text y="22" x="43.5" text-decoration="blink" text-anchor="middle" font-style="normal" font-weight="bold" font-size="20" fill="#000000" font-family="微软雅黑,黑体,Arial,SimSun" id="SvgjsText1421">工具</text></g></g><g opacity="1" transform="translate(293.5 121)" id="SvgjsG1422"><path opacity="1" fill="none" stroke="#323232" stroke-width="0" stroke-dasharray="none" d="M0 0L87 0L87 31L0 31Z " id="SvgjsPath1423"></path><g fill="#ffffff" transform="matrix(1 0 0 1 0 3)" id="SvgjsG1424"><text y="22" x="43.5" text-decoration="blink" text-anchor="middle" font-style="normal" font-weight="bold" font-size="20" fill="#000000" font-family="微软雅黑,黑体,Arial,SimSun" id="SvgjsText1425">方法</text></g></g><g opacity="1" transform="translate(116 179)" id="SvgjsG1426"><path opacity="1" fill="#ffffff" stroke-width="2" stroke="#323232" stroke-dasharray="none" d="M0 0L111 0L111 98.5L0 98.5Z " id="SvgjsPath1427"></path><g fill="#ffffff" transform="matrix(1 0 0 1 10 8.625)" id="SvgjsG1428"><text y="14" x="45.5" text-decoration="blink" text-anchor="middle" font-style="normal" font-weight="bold" font-size="13" fill="#000000" font-family="微软雅黑,黑体,Arial,SimSun" id="SvgjsText1429">确定目标地址范</text><text y="30.25" x="45.5" text-decoration="blink" text-anchor="middle" font-style="normal" font-weight="bold" font-size="13" fill="#000000" font-family="微软雅黑,黑体,Arial,SimSun" id="SvgjsText1430">围、查询名字空</text><text y="46.5" x="45.5" text-decoration="blink" text-anchor="middle" font-style="normal" font-weight="bold" font-size="13" fill="#000000" font-family="微软雅黑,黑体,Arial,SimSun" id="SvgjsText1431">间、并收集信息</text><text y="62.75" x="45.5" text-decoration="blink" text-anchor="middle" font-style="normal" font-weight="bold" font-size="13" fill="#000000" font-family="微软雅黑,黑体,Arial,SimSun" id="SvgjsText1432">，其关键在于不</text><text y="79" x="45.5" text-decoration="blink" text-anchor="middle" font-style="normal" font-weight="bold" font-size="13" fill="#000000" font-family="微软雅黑,黑体,Arial,SimSun" id="SvgjsText1433">要漏掉任何细节</text></g></g><g opacity="1" transform="translate(484 159)" id="SvgjsG1434"><path opacity="1" fill="#ffffff" stroke-width="2" stroke="#323232" stroke-dasharray="none" d="M0 0L132 0L132 118.5L0 118.5Z " id="SvgjsPath1435"></path><g fill="#ffffff" transform="matrix(1 0 0 1 10 26.75)" id="SvgjsG1436"><text y="14" x="56" text-decoration="blink" text-anchor="middle" font-style="normal" font-weight="bold" font-size="13" fill="#000000" font-family="微软雅黑,黑体,Arial,SimSun" id="SvgjsText1437">打开源查询</text><text y="30.25" x="56" text-decoration="blink" text-anchor="middle" font-style="normal" font-weight="bold" font-size="13" fill="#000000" font-family="微软雅黑,黑体,Arial,SimSun" id="SvgjsText1438">whois</text><text y="46.5" x="56" text-decoration="blink" text-anchor="middle" font-style="normal" font-weight="bold" font-size="13" fill="#000000" font-family="微软雅黑,黑体,Arial,SimSun" id="SvgjsText1439">whois的web接口</text><text y="62.75" x="56" text-decoration="blink" text-anchor="middle" font-style="normal" font-weight="bold" font-size="13" fill="#000000" font-family="微软雅黑,黑体,Arial,SimSun" id="SvgjsText1440">ARIN whois</text></g></g><g opacity="1" transform="translate(616 153.5)" id="SvgjsG1441"><path opacity="1" fill="#ccffcc" stroke-width="2" stroke="#323232" stroke-dasharray="none" d="M0 4Q0 0 4 0L287 0Q291 0 291 4L291 125.5Q291 129.5 287 129.5L4 129.5Q0 129.5 0 125.5Z " id="SvgjsPath1442"></path><g fill="#ffffff" transform="matrix(1 0 0 1 10 16)" id="SvgjsG1443"><text y="12" x="135.5" text-decoration="blink" text-anchor="middle" font-style="normal" font-weight="normal" font-size="13" fill="#323232" font-family="Arial,SimSun" id="SvgjsText1444">Usenet，搜索引擎，Edgar，Gooscan</text><text y="16.25" x="135.5" text-decoration="blink" text-anchor="middle" font-style="normal" font-weight="normal" font-size="13" fill="#323232" font-family="Arial,SimSun" id="SvgjsText1445"></text><text y="44.5" x="135.5" text-decoration="blink" text-anchor="middle" font-style="normal" font-weight="normal" font-size="13" fill="#323232" font-family="Arial,SimSun" id="SvgjsText1446">FingerGoogle，任何Unix客户</text><text y="60.75" x="135.5" text-decoration="blink" text-anchor="middle" font-style="normal" font-weight="normal" font-size="13" fill="#323232" font-family="Arial,SimSun" id="SvgjsText1447">http://www.networksolutions.com/whois</text><text y="77" x="135.5" text-decoration="blink" text-anchor="middle" font-style="normal" font-weight="normal" font-size="13" fill="#323232" font-family="Arial,SimSun" id="SvgjsText1448">http://www.arin.net/whois</text><text y="93.25" x="135.5" text-decoration="blink" text-anchor="middle" font-style="normal" font-weight="normal" font-size="13" fill="#323232" font-family="Arial,SimSun" id="SvgjsText1449">dig,nslookup ls -d,Sam spade,dnsmap</text></g></g><g opacity="1" transform="translate(113 327.25)" id="SvgjsG1450"><path opacity="1" fill="#ffffff" stroke-width="2" stroke="#323232" stroke-dasharray="none" d="M0 0L111 0L111 98.5L0 98.5Z " id="SvgjsPath1451"></path><g fill="#ffffff" transform="matrix(1 0 0 1 10 8.625)" id="SvgjsG1452"><text y="14" x="45.5" text-decoration="blink" text-anchor="middle" font-style="normal" font-weight="bold" font-size="13" fill="#000000" font-family="微软雅黑,黑体,Arial,SimSun" id="SvgjsText1453">评估目标系统，</text><text y="30.25" x="45.5" text-decoration="blink" text-anchor="middle" font-style="normal" font-weight="bold" font-size="13" fill="#000000" font-family="微软雅黑,黑体,Arial,SimSun" id="SvgjsText1454">识别监听服务，</text><text y="46.5" x="45.5" text-decoration="blink" text-anchor="middle" font-style="normal" font-weight="bold" font-size="13" fill="#000000" font-family="微软雅黑,黑体,Arial,SimSun" id="SvgjsText1455">使攻击者将精力</text><text y="62.75" x="45.5" text-decoration="blink" text-anchor="middle" font-style="normal" font-weight="bold" font-size="13" fill="#000000" font-family="微软雅黑,黑体,Arial,SimSun" id="SvgjsText1456">集中于最有希望</text><text y="79" x="45.5" text-decoration="blink" text-anchor="middle" font-style="normal" font-weight="bold" font-size="13" fill="#000000" font-family="微软雅黑,黑体,Arial,SimSun" id="SvgjsText1457">攻克的路径</text></g></g><g opacity="1" transform="translate(109.5 486.5)" id="SvgjsG1458"><path opacity="1" fill="#ffffff" stroke-width="2" stroke="#323232" stroke-dasharray="none" d="M0 0L111 0L111 98.5L0 98.5Z " id="SvgjsPath1459"></path><g fill="#ffffff" transform="matrix(1 0 0 1 10 0.5)" id="SvgjsG1460"><text y="14" x="45.5" text-decoration="blink" text-anchor="middle" font-style="normal" font-weight="bold" font-size="13" fill="#000000" font-family="微软雅黑,黑体,Arial,SimSun" id="SvgjsText1461">识别目标系统上</text><text y="30.25" x="45.5" text-decoration="blink" text-anchor="middle" font-style="normal" font-weight="bold" font-size="13" fill="#000000" font-family="微软雅黑,黑体,Arial,SimSun" id="SvgjsText1462">的合法用户账户</text><text y="46.5" x="45.5" text-decoration="blink" text-anchor="middle" font-style="normal" font-weight="bold" font-size="13" fill="#000000" font-family="微软雅黑,黑体,Arial,SimSun" id="SvgjsText1463">和保护力度不够</text><text y="62.75" x="45.5" text-decoration="blink" text-anchor="middle" font-style="normal" font-weight="bold" font-size="13" fill="#000000" font-family="微软雅黑,黑体,Arial,SimSun" id="SvgjsText1464">的共享资源，这</text><text y="79" x="45.5" text-decoration="blink" text-anchor="middle" font-style="normal" font-weight="bold" font-size="13" fill="#000000" font-family="微软雅黑,黑体,Arial,SimSun" id="SvgjsText1465">是更具侵入性的</text><text y="95.25" x="45.5" text-decoration="blink" text-anchor="middle" font-style="normal" font-weight="bold" font-size="13" fill="#000000" font-family="微软雅黑,黑体,Arial,SimSun" id="SvgjsText1466">探测</text></g></g><g opacity="1" transform="translate(97 645)" id="SvgjsG1467"><path opacity="1" fill="#ffffff" stroke-width="2" stroke="#323232" stroke-dasharray="none" d="M0 0L131 0L131 142L0 142Z " id="SvgjsPath1468"></path><g fill="#ffffff" transform="matrix(1 0 0 1 10 6)" id="SvgjsG1469"><text y="14" x="55.5" text-decoration="blink" text-anchor="middle" font-style="normal" font-weight="bold" font-size="13" fill="#000000" font-family="微软雅黑,黑体,Arial,SimSun" id="SvgjsText1470">收集足够数据，尝</text><text y="30.25" x="55.5" text-decoration="blink" text-anchor="middle" font-style="normal" font-weight="bold" font-size="13" fill="#000000" font-family="微软雅黑,黑体,Arial,SimSun" id="SvgjsText1471">试访问目标系统。</text><text y="46.5" x="55.5" text-decoration="blink" text-anchor="middle" font-style="normal" font-weight="bold" font-size="13" fill="#000000" font-family="微软雅黑,黑体,Arial,SimSun" id="SvgjsText1472">通过向受害人发送</text><text y="62.75" x="55.5" text-decoration="blink" text-anchor="middle" font-style="normal" font-weight="bold" font-size="13" fill="#000000" font-family="微软雅黑,黑体,Arial,SimSun" id="SvgjsText1473">PDF或网页链接，</text><text y="79" x="55.5" text-decoration="blink" text-anchor="middle" font-style="normal" font-weight="bold" font-size="13" fill="#000000" font-family="微软雅黑,黑体,Arial,SimSun" id="SvgjsText1474">APT通常从这里开</text><text y="95.25" x="55.5" text-decoration="blink" text-anchor="middle" font-style="normal" font-weight="bold" font-size="13" fill="#000000" font-family="微软雅黑,黑体,Arial,SimSun" id="SvgjsText1475">始。一旦打开文件</text><text y="111.5" x="55.5" text-decoration="blink" text-anchor="middle" font-style="normal" font-weight="bold" font-size="13" fill="#000000" font-family="微软雅黑,黑体,Arial,SimSun" id="SvgjsText1476">或链接，受害人会</text><text y="127.75" x="55.5" text-decoration="blink" text-anchor="middle" font-style="normal" font-weight="bold" font-size="13" fill="#000000" font-family="微软雅黑,黑体,Arial,SimSun" id="SvgjsText1477">守到零日攻击</text></g></g><g opacity="1" transform="translate(90 821.5)" id="SvgjsG1478"><path opacity="1" fill="#ffffff" stroke-width="2" stroke="#323232" stroke-dasharray="none" d="M0 0L111 0L111 98.5L0 98.5Z " id="SvgjsPath1479"></path><g fill="#ffffff" transform="matrix(1 0 0 1 10 16.75)" id="SvgjsG1480"><text y="14" x="45.5" text-decoration="blink" text-anchor="middle" font-style="normal" font-weight="bold" font-size="13" fill="#000000" font-family="微软雅黑,黑体,Arial,SimSun" id="SvgjsText1481">如果上一步只获</text><text y="30.25" x="45.5" text-decoration="blink" text-anchor="middle" font-style="normal" font-weight="bold" font-size="13" fill="#000000" font-family="微软雅黑,黑体,Arial,SimSun" id="SvgjsText1482">得普通用户级别</text><text y="46.5" x="45.5" text-decoration="blink" text-anchor="middle" font-style="normal" font-weight="bold" font-size="13" fill="#000000" font-family="微软雅黑,黑体,Arial,SimSun" id="SvgjsText1483">的访问，在此步</text><text y="62.75" x="45.5" text-decoration="blink" text-anchor="middle" font-style="normal" font-weight="bold" font-size="13" fill="#000000" font-family="微软雅黑,黑体,Arial,SimSun" id="SvgjsText1484">骤实现提升权限</text></g></g><g opacity="1" transform="translate(97 940)" id="SvgjsG1485"><path opacity="1" fill="#ffffff" stroke-width="2" stroke="#323232" stroke-dasharray="none" d="M0 0L111 0L111 98.5L0 98.5Z " id="SvgjsPath1486"></path><g fill="#ffffff" transform="matrix(1 0 0 1 10 0.5)" id="SvgjsG1487"><text y="14" x="45.5" text-decoration="blink" text-anchor="middle" font-style="normal" font-weight="bold" font-size="13" fill="#000000" font-family="微软雅黑,黑体,Arial,SimSun" id="SvgjsText1488">再次窃取信息，</text><text y="30.25" x="45.5" text-decoration="blink" text-anchor="middle" font-style="normal" font-weight="bold" font-size="13" fill="#000000" font-family="微软雅黑,黑体,Arial,SimSun" id="SvgjsText1489">以确定目标系统</text><text y="46.5" x="45.5" text-decoration="blink" text-anchor="middle" font-style="normal" font-weight="bold" font-size="13" fill="#000000" font-family="微软雅黑,黑体,Arial,SimSun" id="SvgjsText1490">的入侵机制和途</text><text y="62.75" x="45.5" text-decoration="blink" text-anchor="middle" font-style="normal" font-weight="bold" font-size="13" fill="#000000" font-family="微软雅黑,黑体,Arial,SimSun" id="SvgjsText1491">径。数据和文件</text><text y="79" x="45.5" text-decoration="blink" text-anchor="middle" font-style="normal" font-weight="bold" font-size="13" fill="#000000" font-family="微软雅黑,黑体,Arial,SimSun" id="SvgjsText1492">都是从该环境提</text><text y="95.25" x="45.5" text-decoration="blink" text-anchor="middle" font-style="normal" font-weight="bold" font-size="13" fill="#000000" font-family="微软雅黑,黑体,Arial,SimSun" id="SvgjsText1493">取的。</text></g></g><g opacity="1" transform="translate(97 1069.5)" id="SvgjsG1494"><path opacity="1" fill="#ffffff" stroke-width="2" stroke="#323232" stroke-dasharray="none" d="M0 0L111 0L111 98.5L0 98.5Z " id="SvgjsPath1495"></path><g fill="#ffffff" transform="matrix(1 0 0 1 10 16.75)" id="SvgjsG1496"><text y="14" x="45.5" text-decoration="blink" text-anchor="middle" font-style="normal" font-weight="bold" font-size="13" fill="#000000" font-family="微软雅黑,黑体,Arial,SimSun" id="SvgjsText1497">完全控制系统之</text><text y="30.25" x="45.5" text-decoration="blink" text-anchor="middle" font-style="normal" font-weight="bold" font-size="13" fill="#000000" font-family="微软雅黑,黑体,Arial,SimSun" id="SvgjsText1498">后。为避免管理</text><text y="46.5" x="45.5" text-decoration="blink" text-anchor="middle" font-style="normal" font-weight="bold" font-size="13" fill="#000000" font-family="微软雅黑,黑体,Arial,SimSun" id="SvgjsText1499">员发现，掩盖访</text><text y="62.75" x="45.5" text-decoration="blink" text-anchor="middle" font-style="normal" font-weight="bold" font-size="13" fill="#000000" font-family="微软雅黑,黑体,Arial,SimSun" id="SvgjsText1500">问痕迹。</text></g></g><g opacity="1" transform="translate(90 1196.5)" id="SvgjsG1501"><path opacity="1" fill="#ffffff" stroke-width="2" stroke="#323232" stroke-dasharray="none" d="M0 0L111 0L111 98.5L0 98.5Z " id="SvgjsPath1502"></path><g fill="#ffffff" transform="matrix(1 0 0 1 10 16.75)" id="SvgjsG1503"><text y="14" x="45.5" text-decoration="blink" text-anchor="middle" font-style="normal" font-weight="bold" font-size="13" fill="#000000" font-family="微软雅黑,黑体,Arial,SimSun" id="SvgjsText1504">在系统中留下后</text><text y="30.25" x="45.5" text-decoration="blink" text-anchor="middle" font-style="normal" font-weight="bold" font-size="13" fill="#000000" font-family="微软雅黑,黑体,Arial,SimSun" id="SvgjsText1505">门和陷阱，为下</text><text y="46.5" x="45.5" text-decoration="blink" text-anchor="middle" font-style="normal" font-weight="bold" font-size="13" fill="#000000" font-family="微软雅黑,黑体,Arial,SimSun" id="SvgjsText1506">一次入侵做准备</text><text y="62.75" x="45.5" text-decoration="blink" text-anchor="middle" font-style="normal" font-weight="bold" font-size="13" fill="#000000" font-family="微软雅黑,黑体,Arial,SimSun" id="SvgjsText1507">。</text></g></g><g opacity="1" transform="translate(90 1316)" id="SvgjsG1508"><path opacity="1" fill="#ffffff" stroke-width="2" stroke="#323232" stroke-dasharray="none" d="M0 0L111 0L111 98.5L0 98.5Z " id="SvgjsPath1509"></path><g fill="#ffffff" transform="matrix(1 0 0 1 10 0.5)" id="SvgjsG1510"><text y="14" x="45.5" text-decoration="blink" text-anchor="middle" font-style="normal" font-weight="bold" font-size="13" fill="#000000" font-family="微软雅黑,黑体,Arial,SimSun" id="SvgjsText1511">如果入侵者无法</text><text y="30.25" x="45.5" text-decoration="blink" text-anchor="middle" font-style="normal" font-weight="bold" font-size="13" fill="#000000" font-family="微软雅黑,黑体,Arial,SimSun" id="SvgjsText1512">获得访问权限，</text><text y="46.5" x="45.5" text-decoration="blink" text-anchor="middle" font-style="normal" font-weight="bold" font-size="13" fill="#000000" font-family="微软雅黑,黑体,Arial,SimSun" id="SvgjsText1513">但又志在必得，</text><text y="62.75" x="45.5" text-decoration="blink" text-anchor="middle" font-style="normal" font-weight="bold" font-size="13" fill="#000000" font-family="微软雅黑,黑体,Arial,SimSun" id="SvgjsText1514">则可以使用准备</text><text y="79" x="45.5" text-decoration="blink" text-anchor="middle" font-style="normal" font-weight="bold" font-size="13" fill="#000000" font-family="微软雅黑,黑体,Arial,SimSun" id="SvgjsText1515">阿红的漏洞代码</text><text y="95.25" x="45.5" text-decoration="blink" text-anchor="middle" font-style="normal" font-weight="bold" font-size="13" fill="#000000" font-family="微软雅黑,黑体,Arial,SimSun" id="SvgjsText1516">使其系统瘫痪</text></g></g><g opacity="1" transform="translate(481 302.25)" id="SvgjsG1517"><path opacity="1" fill="#ffffff" stroke-width="2" stroke="#323232" stroke-dasharray="none" d="M0 0L132 0L132 118.5L0 118.5Z " id="SvgjsPath1518"></path><g fill="#ffffff" transform="matrix(1 0 0 1 10 34.875)" id="SvgjsG1519"><text y="14" x="56" text-decoration="blink" text-anchor="middle" font-style="normal" font-weight="bold" font-size="13" fill="#000000" font-family="微软雅黑,黑体,Arial,SimSun" id="SvgjsText1520">Ping系列工具</text><text y="30.25" x="56" text-decoration="blink" text-anchor="middle" font-style="normal" font-weight="bold" font-size="13" fill="#000000" font-family="微软雅黑,黑体,Arial,SimSun" id="SvgjsText1521">TCP/UDP端口扫描</text><text y="46.5" x="56" text-decoration="blink" text-anchor="middle" font-style="normal" font-weight="bold" font-size="13" fill="#000000" font-family="微软雅黑,黑体,Arial,SimSun" id="SvgjsText1522">OS监测</text></g></g><g opacity="1" transform="translate(481 472.25)" id="SvgjsG1523"><path opacity="1" fill="#ffffff" stroke-width="2" stroke="#323232" stroke-dasharray="none" d="M0 0L132 0L132 118.5L0 118.5Z " id="SvgjsPath1524"></path><g fill="#ffffff" transform="matrix(1 0 0 1 10 26.75)" id="SvgjsG1525"><text y="14" x="56" text-decoration="blink" text-anchor="middle" font-style="normal" font-weight="bold" font-size="13" fill="#000000" font-family="微软雅黑,黑体,Arial,SimSun" id="SvgjsText1526">列出用户账号</text><text y="30.25" x="56" text-decoration="blink" text-anchor="middle" font-style="normal" font-weight="bold" font-size="13" fill="#000000" font-family="微软雅黑,黑体,Arial,SimSun" id="SvgjsText1527">列出共享文件</text><text y="46.5" x="56" text-decoration="blink" text-anchor="middle" font-style="normal" font-weight="bold" font-size="13" fill="#000000" font-family="微软雅黑,黑体,Arial,SimSun" id="SvgjsText1528">识别应用程序</text><text y="62.75" x="56" text-decoration="blink" text-anchor="middle" font-style="normal" font-weight="bold" font-size="13" fill="#000000" font-family="微软雅黑,黑体,Arial,SimSun" id="SvgjsText1529">SNMP</text></g></g><g opacity="1" transform="translate(481 624.5)" id="SvgjsG1530"><path opacity="1" fill="#ffffff" stroke-width="2" stroke="#323232" stroke-dasharray="none" d="M0 0L132 0L132 118.5L0 118.5Z " id="SvgjsPath1531"></path><g fill="#ffffff" transform="matrix(1 0 0 1 10 34.875)" id="SvgjsG1532"><text y="14" x="56" text-decoration="blink" text-anchor="middle" font-style="normal" font-weight="bold" font-size="13" fill="#000000" font-family="微软雅黑,黑体,Arial,SimSun" id="SvgjsText1533">密码嗅探</text><text y="30.25" x="56" text-decoration="blink" text-anchor="middle" font-style="normal" font-weight="bold" font-size="13" fill="#000000" font-family="微软雅黑,黑体,Arial,SimSun" id="SvgjsText1534">蛮力攻击</text><text y="46.5" x="56" text-decoration="blink" text-anchor="middle" font-style="normal" font-weight="bold" font-size="13" fill="#000000" font-family="微软雅黑,黑体,Arial,SimSun" id="SvgjsText1535">渗透工具</text></g></g><g opacity="1" transform="translate(477 794.5)" id="SvgjsG1536"><path opacity="1" fill="#ffffff" stroke-width="2" stroke="#323232" stroke-dasharray="none" d="M0 0L132 0L132 118.5L0 118.5Z " id="SvgjsPath1537"></path><g fill="#ffffff" transform="matrix(1 0 0 1 10 43)" id="SvgjsG1538"><text y="14" x="56" text-decoration="blink" text-anchor="middle" font-style="normal" font-weight="bold" font-size="13" fill="#000000" font-family="微软雅黑,黑体,Arial,SimSun" id="SvgjsText1539">破解密码</text><text y="30.25" x="56" text-decoration="blink" text-anchor="middle" font-style="normal" font-weight="bold" font-size="13" fill="#000000" font-family="微软雅黑,黑体,Arial,SimSun" id="SvgjsText1540">利用漏洞</text></g></g><g opacity="1" transform="translate(481 935.25)" id="SvgjsG1541"><path opacity="1" fill="#ffffff" stroke-width="2" stroke="#323232" stroke-dasharray="none" d="M0 0L115 0L115 85.75L0 85.75Z " id="SvgjsPath1542"></path><g fill="#ffffff" transform="matrix(1 0 0 1 10 26.625)" id="SvgjsG1543"><text y="14" x="47.5" text-decoration="blink" text-anchor="middle" font-style="normal" font-weight="bold" font-size="13" fill="#000000" font-family="微软雅黑,黑体,Arial,SimSun" id="SvgjsText1544">评估可信系统</text><text y="30.25" x="47.5" text-decoration="blink" text-anchor="middle" font-style="normal" font-weight="bold" font-size="13" fill="#000000" font-family="微软雅黑,黑体,Arial,SimSun" id="SvgjsText1545">搜索明文密码</text></g></g><g opacity="1" transform="translate(481 1064.75)" id="SvgjsG1546"><path opacity="1" fill="#ffffff" stroke-width="2" stroke="#323232" stroke-dasharray="none" d="M0 0L124 0L124 81.25L0 81.25Z " id="SvgjsPath1547"></path><g fill="#ffffff" transform="matrix(1 0 0 1 10 24.375)" id="SvgjsG1548"><text y="14" x="52" text-decoration="blink" text-anchor="middle" font-style="normal" font-weight="bold" font-size="13" fill="#000000" font-family="微软雅黑,黑体,Arial,SimSun" id="SvgjsText1549">清除日志记录</text><text y="30.25" x="52" text-decoration="blink" text-anchor="middle" font-style="normal" font-weight="bold" font-size="13" fill="#000000" font-family="微软雅黑,黑体,Arial,SimSun" id="SvgjsText1550">掩藏工具</text></g></g><g opacity="1" transform="translate(481 1183.25)" id="SvgjsG1551"><path opacity="1" fill="#ffffff" stroke-width="2" stroke="#323232" stroke-dasharray="none" d="M0 0L132 0L132 118.5L0 118.5Z " id="SvgjsPath1552"></path><g fill="#ffffff" transform="matrix(1 0 0 1 10 2.375)" id="SvgjsG1553"><text y="14" x="56" text-decoration="blink" text-anchor="middle" font-style="normal" font-weight="bold" font-size="13" fill="#000000" font-family="微软雅黑,黑体,Arial,SimSun" id="SvgjsText1554">创建流氓用户账号</text><text y="30.25" x="56" text-decoration="blink" text-anchor="middle" font-style="normal" font-weight="bold" font-size="13" fill="#000000" font-family="微软雅黑,黑体,Arial,SimSun" id="SvgjsText1555">安排批处理作业</text><text y="46.5" x="56" text-decoration="blink" text-anchor="middle" font-style="normal" font-weight="bold" font-size="13" fill="#000000" font-family="微软雅黑,黑体,Arial,SimSun" id="SvgjsText1556">感染启动文件</text><text y="62.75" x="56" text-decoration="blink" text-anchor="middle" font-style="normal" font-weight="bold" font-size="13" fill="#000000" font-family="微软雅黑,黑体,Arial,SimSun" id="SvgjsText1557">植入远程控制服务</text><text y="79" x="56" text-decoration="blink" text-anchor="middle" font-style="normal" font-weight="bold" font-size="13" fill="#000000" font-family="微软雅黑,黑体,Arial,SimSun" id="SvgjsText1558">安装监控机制</text><text y="95.25" x="56" text-decoration="blink" text-anchor="middle" font-style="normal" font-weight="bold" font-size="13" fill="#000000" font-family="微软雅黑,黑体,Arial,SimSun" id="SvgjsText1559">用特洛伊木马特换</text><text y="111.5" x="56" text-decoration="blink" text-anchor="middle" font-style="normal" font-weight="bold" font-size="13" fill="#000000" font-family="微软雅黑,黑体,Arial,SimSun" id="SvgjsText1560">真实应用</text></g></g><g opacity="1" transform="translate(398 1301.75)" id="SvgjsG1561"><path opacity="1" fill="#ffffff" stroke-width="2" stroke="#323232" stroke-dasharray="none" d="M0 0L243 0L243 115.25L0 115.25Z " id="SvgjsPath1562"></path><g fill="#ffffff" transform="matrix(1 0 0 1 10 17)" id="SvgjsG1563"><text y="14" x="111.5" text-decoration="blink" text-anchor="middle" font-style="normal" font-weight="bold" font-size="13" fill="#000000" font-family="微软雅黑,黑体,Arial,SimSun" id="SvgjsText1564">SYN泛洪攻击</text><text y="30.25" x="111.5" text-decoration="blink" text-anchor="middle" font-style="normal" font-weight="bold" font-size="13" fill="#000000" font-family="微软雅黑,黑体,Arial,SimSun" id="SvgjsText1565">ICMP技术</text><text y="46.5" x="111.5" text-decoration="blink" text-anchor="middle" font-style="normal" font-weight="bold" font-size="13" fill="#000000" font-family="微软雅黑,黑体,Arial,SimSun" id="SvgjsText1566">Overlapping fragment/offset bugs</text><text y="62.75" x="111.5" text-decoration="blink" text-anchor="middle" font-style="normal" font-weight="bold" font-size="13" fill="#000000" font-family="微软雅黑,黑体,Arial,SimSun" id="SvgjsText1567">Out of bunds TCP options</text><text y="79" x="111.5" text-decoration="blink" text-anchor="middle" font-style="normal" font-weight="bold" font-size="13" fill="#000000" font-family="微软雅黑,黑体,Arial,SimSun" id="SvgjsText1568">OOB（DDOS）</text></g></g><g opacity="1" transform="translate(613 296.75)" id="SvgjsG1569"><path opacity="1" fill="#ccffcc" stroke-width="2" stroke="#323232" stroke-dasharray="none" d="M0 4Q0 0 4 0L287 0Q291 0 291 4L291 125.5Q291 129.5 287 129.5L4 129.5Q0 129.5 0 125.5Z " id="SvgjsPath1570"></path><g fill="#ffffff" transform="matrix(1 0 0 1 10 40.375)" id="SvgjsG1571"><text y="12" x="135.5" text-decoration="blink" text-anchor="middle" font-style="normal" font-weight="normal" font-size="13" fill="#323232" font-family="Arial,SimSun" id="SvgjsText1572">fping、hping、nmap</text><text y="28.25" x="135.5" text-decoration="blink" text-anchor="middle" font-style="normal" font-weight="normal" font-size="13" fill="#323232" font-family="Arial,SimSun" id="SvgjsText1573">SuperScan、Autoscan、Scanline</text><text y="44.5" x="135.5" text-decoration="blink" text-anchor="middle" font-style="normal" font-weight="normal" font-size="13" fill="#323232" font-family="Arial,SimSun" id="SvgjsText1574">nmap、amap、SinFp、xprobe2</text></g></g><g opacity="1" transform="translate(609 466.75)" id="SvgjsG1575"><path opacity="1" fill="#ccffcc" stroke-width="2" stroke="#323232" stroke-dasharray="none" d="M0 4Q0 0 4 0L287 0Q291 0 291 4L291 125.5Q291 129.5 287 129.5L4 129.5Q0 129.5 0 125.5Z " id="SvgjsPath1576"></path><g fill="#ffffff" transform="matrix(1 0 0 1 10 32.25)" id="SvgjsG1577"><text y="12" x="135.5" text-decoration="blink" text-anchor="middle" font-style="normal" font-weight="normal" font-size="13" fill="#323232" font-family="Arial,SimSun" id="SvgjsText1578">空会话、DumpSec、PSTools</text><text y="28.25" x="135.5" text-decoration="blink" text-anchor="middle" font-style="normal" font-weight="normal" font-size="13" fill="#323232" font-family="Arial,SimSun" id="SvgjsText1579">showmount、SMB-NAT、nmbscan</text><text y="44.5" x="135.5" text-decoration="blink" text-anchor="middle" font-style="normal" font-weight="normal" font-size="13" fill="#323232" font-family="Arial,SimSun" id="SvgjsText1580">用telnet或者netcat抓取旗标</text><text y="60.75" x="135.5" text-decoration="blink" text-anchor="middle" font-style="normal" font-weight="normal" font-size="13" fill="#323232" font-family="Arial,SimSun" id="SvgjsText1581">rpcinfo，amap，nmap，Cisco Torch</text></g></g><g opacity="1" transform="translate(613 619)" id="SvgjsG1582"><path opacity="1" fill="#ccffcc" stroke-width="2" stroke="#323232" stroke-dasharray="none" d="M0 4Q0 0 4 0L287 0Q291 0 291 4L291 125.5Q291 129.5 287 129.5L4 129.5Q0 129.5 0 125.5Z " id="SvgjsPath1583"></path><g fill="#ffffff" transform="matrix(1 0 0 1 10 32.25)" id="SvgjsG1584"><text y="12" x="135.5" text-decoration="blink" text-anchor="middle" font-style="normal" font-weight="normal" font-size="13" fill="#323232" font-family="Arial,SimSun" id="SvgjsText1585">airsnarf、dsniff、Cain and Abel，phoss</text><text y="28.25" x="135.5" text-decoration="blink" text-anchor="middle" font-style="normal" font-weight="normal" font-size="13" fill="#323232" font-family="Arial,SimSun" id="SvgjsText1586">hydra，medusa</text><text y="44.5" x="135.5" text-decoration="blink" text-anchor="middle" font-style="normal" font-weight="normal" font-size="13" fill="#323232" font-family="Arial,SimSun" id="SvgjsText1587">SIPcrack</text><text y="60.75" x="135.5" text-decoration="blink" text-anchor="middle" font-style="normal" font-weight="normal" font-size="13" fill="#323232" font-family="Arial,SimSun" id="SvgjsText1588">Metasploit Framework，Canvas</text></g></g><g opacity="1" transform="translate(609 789)" id="SvgjsG1589"><path opacity="1" fill="#ccffcc" stroke-width="2" stroke="#323232" stroke-dasharray="none" d="M0 4Q0 0 4 0L287 0Q291 0 291 4L291 125.5Q291 129.5 287 129.5L4 129.5Q0 129.5 0 125.5Z " id="SvgjsPath1590"></path><g fill="#ffffff" transform="matrix(1 0 0 1 10 48.5)" id="SvgjsG1591"><text y="12" x="135.5" text-decoration="blink" text-anchor="middle" font-style="normal" font-weight="normal" font-size="13" fill="#323232" font-family="Arial,SimSun" id="SvgjsText1592">John The Ripper，L0phtcrack，rcr</text><text y="28.25" x="135.5" text-decoration="blink" text-anchor="middle" font-style="normal" font-weight="normal" font-size="13" fill="#323232" font-family="Arial,SimSun" id="SvgjsText1593">Metasploit Framework</text></g></g><g opacity="1" transform="translate(596 929.125)" id="SvgjsG1594"><path opacity="1" fill="#ccffcc" stroke-width="2" stroke="#323232" stroke-dasharray="none" d="M0 4Q0 0 4 0L271 0Q275 0 275 4L275 87.875Q275 91.875 271 91.875L4 91.875Q0 91.875 0 87.875Z " id="SvgjsPath1595"></path><g fill="#ffffff" transform="matrix(1 0 0 1 10 29.6875)" id="SvgjsG1596"><text y="12" x="127.5" text-decoration="blink" text-anchor="middle" font-style="normal" font-weight="normal" font-size="13" fill="#323232" font-family="Arial,SimSun" id="SvgjsText1597">rhosts，LSA Secrets</text><text y="28.25" x="127.5" text-decoration="blink" text-anchor="middle" font-style="normal" font-weight="normal" font-size="13" fill="#323232" font-family="Arial,SimSun" id="SvgjsText1598">用户数据，配置文件，Windows R</text></g></g><g opacity="1" transform="translate(605 1068.75)" id="SvgjsG1599"><path opacity="1" fill="#ccffcc" stroke-width="2" stroke="#323232" stroke-dasharray="none" d="M0 4Q0 0 4 0L279 0Q283 0 283 4L283 69.25Q283 73.25 279 73.25L4 73.25Q0 73.25 0 69.25Z " id="SvgjsPath1600"></path><g fill="#ffffff" transform="matrix(1 0 0 1 10 20.375)" id="SvgjsG1601"><text y="12" x="131.5" text-decoration="blink" text-anchor="middle" font-style="normal" font-weight="normal" font-size="13" fill="#323232" font-family="Arial,SimSun" id="SvgjsText1602">logclean-ng，wtmpclean</text><text y="28.25" x="131.5" text-decoration="blink" text-anchor="middle" font-style="normal" font-weight="normal" font-size="13" fill="#323232" font-family="Arial,SimSun" id="SvgjsText1603">rootkits，文件流</text></g></g><g opacity="1" transform="translate(605 1168)" id="SvgjsG1604"><path opacity="1" fill="#ccffcc" stroke-width="2" stroke="#323232" stroke-dasharray="none" d="M0 4Q0 0 4 0L291 0Q295 0 295 4L295 129.75Q295 133.75 291 133.75L4 133.75Q0 133.75 0 129.75Z " id="SvgjsPath1605"></path><g fill="#ffffff" transform="matrix(1 0 0 1 10 18.125)" id="SvgjsG1606"><text y="12" x="137.5" text-decoration="blink" text-anchor="middle" font-style="normal" font-weight="normal" font-size="13" fill="#323232" font-family="Arial,SimSun" id="SvgjsText1607">members of wheel，Administrators</text><text y="28.25" x="137.5" text-decoration="blink" text-anchor="middle" font-style="normal" font-weight="normal" font-size="13" fill="#323232" font-family="Arial,SimSun" id="SvgjsText1608">cron，AT</text><text y="44.5" x="137.5" text-decoration="blink" text-anchor="middle" font-style="normal" font-weight="normal" font-size="13" fill="#323232" font-family="Arial,SimSun" id="SvgjsText1609">rc，启动文件夹，注册表键</text><text y="60.75" x="137.5" text-decoration="blink" text-anchor="middle" font-style="normal" font-weight="normal" font-size="13" fill="#323232" font-family="Arial,SimSun" id="SvgjsText1610">netcat，psexec，VNC</text><text y="77" x="137.5" text-decoration="blink" text-anchor="middle" font-style="normal" font-weight="normal" font-size="13" fill="#323232" font-family="Arial,SimSun" id="SvgjsText1611">键击记录器</text><text y="93.25" x="137.5" text-decoration="blink" text-anchor="middle" font-style="normal" font-weight="normal" font-size="13" fill="#323232" font-family="Arial,SimSun" id="SvgjsText1612">login，fpnwclnt.dll，patched SSH versions</text></g></g><g opacity="1" transform="translate(641 1301.75)" id="SvgjsG1613"><path opacity="1" fill="#ccffcc" stroke-width="2" stroke="#323232" stroke-dasharray="none" d="M0 4Q0 0 4 0L285 0Q289 0 289 4L289 111.25Q289 115.25 285 115.25L4 115.25Q0 115.25 0 111.25Z " id="SvgjsPath1614"></path><g fill="#ffffff" transform="matrix(1 0 0 1 10 17)" id="SvgjsG1615"><text y="12" x="134.5" text-decoration="blink" text-anchor="middle" font-style="normal" font-weight="normal" font-size="13" fill="#323232" font-family="Arial,SimSun" id="SvgjsText1616">synk4</text><text y="28.25" x="134.5" text-decoration="blink" text-anchor="middle" font-style="normal" font-weight="normal" font-size="13" fill="#323232" font-family="Arial,SimSun" id="SvgjsText1617">ping of death,smurf,ICMP nuke</text><text y="44.5" x="134.5" text-decoration="blink" text-anchor="middle" font-style="normal" font-weight="normal" font-size="13" fill="#323232" font-family="Arial,SimSun" id="SvgjsText1618">teardrop,bonk,newtear</text><text y="60.75" x="134.5" text-decoration="blink" text-anchor="middle" font-style="normal" font-weight="normal" font-size="13" fill="#323232" font-family="Arial,SimSun" id="SvgjsText1619">supernuke.exe</text><text y="77" x="134.5" text-decoration="blink" text-anchor="middle" font-style="normal" font-weight="normal" font-size="13" fill="#323232" font-family="Arial,SimSun" id="SvgjsText1620">trincoo/TFN/stacheldraht</text></g></g></g></g></svg>